#!OML:ASF E:/inclinewalkrobotboard/Project1/Captureday1/Session1/subject1.ASF
:FULLY-SPECIFIED
:DEGREES
213
root 0 0 0 -1.360017272148903 -1.2146277634561622 -3.963168004098401
lowerback 20.26469500254459 2.8158108983260224 -0.3260007062927832
upperback 2.249706872618 3.7895282236999392 -0.25515666194635456
thorax -8.904844081203626 1.8376256736990824 -0.7274440065849045
lowerneck -8.013521981574321 -5.991433146898405 -1.1728301501635938
upperneck 0.39484118365852616 -8.601926596441917 5.368653378239393
head 1.8090143678923356 -3.9491231543703673 1.327593632888977
rclavicle 9.06477529757393E-16 -3.990056716970835E-16
rhumerus 32.5452554804855 -9.345526339205033 -32.625994088282404
rradius 141.30759023462343
rwrist -18.477917448189032
rhand -19.62148021462248 -30.156693007493978
rfingers 7.125019999999966
rthumb 6.730812362257281 -59.98275974629979
lclavicle -7.013145489784043E-16 1.454884161371074E-16
lhumerus -47.15350405066455 -6.234124840263889 79.8284050385321
lradius 61.95577136175832
lwrist 10.951498005719728
lhand -14.6728186035059 -19.579907207370304
lfingers 7.125019999999861
lthumb 11.401026315552992 10.194589886118248
rfemur -19.24726534284609 6.045584093345809 32.37485720590899
rtibia 45.84793019763627
rfoot -11.554248054263125 -7.687611910017029
rtoes 9.33804258199131
lfemur -16.976817281415922 1.280535272465086 -17.49415584142497
ltibia 53.48198589312378
lfoot 2.603099978065483 -10.248421796644894
ltoes 2.1297196190775693
214
root 0 0 0 -1.3655051260658695 -1.2162719459634315 -3.971150214083933
lowerback 20.20795584490794 2.836194706650009 -0.2830541384281118
upperback 2.2172641591709454 3.818532697999683 -0.28498695900655857
thorax -8.908863439351693 1.8503582332139366 -0.7860522499367782
lowerneck -8.085461955851322 -5.993495181253236 -1.2015806778540266
upperneck 0.19820938442415148 -8.61218842394904 5.421449118144189
head 1.748531042328099 -3.9524539386401463 1.3500356791704826
rclavicle 6.374633404003029E-16 -4.358886989731614E-16
rhumerus 33.054064035625586 -9.037234268972842 -32.07850513553521
rradius 142.12596590531655
rwrist -19.306763028964873
rhand -19.527816425797248 -30.359895253462078
rfingers 7.125019999999965
rthumb 6.820679818590355 -60.17821275622577
lclavicle -8.343045875013277E-16 1.1356003375742935E-16
lhumerus -47.13747427750293 -6.276645085988434 79.90822875707349
lradius 61.976091581925516
lwrist 10.926893420383049
lhand -14.631474449077386 -19.658281657309125
lfingers 7.1250199999998625
lthumb 11.441927245086124 10.100736207454169
rfemur -18.55827029971275 6.2513953338188 32.56609562159791
rtibia 44.18030469426921
rfoot -12.222035610571346 -7.560365327403854
rtoes 9.751503362715706
lfemur -17.674035868527433 1.8436634755853967 -16.406111562209723
ltibia 56.919372329361074
lfoot 1.9638634997744262 -9.999738140041874
ltoes -0.6828869917715039
215
root 0 0 0 -1.389724491884441 -1.25381223899164 -3.9862891174333366
lowerback 20.037860132876 2.908316010883368 -0.1289566340973799
upperback 2.1722973470170173 3.920235471251024 -0.3843617712665577
thorax -8.865456761887538 1.8951986823998985 -0.9877778836458465
lowerneck -8.315801782683687 -5.996415094238996 -1.3143119680906978
upperneck -0.36931523113118203 -8.63725097360339 5.599023232634961
head 1.571135399974465 -3.9599328846397697 1.4273438892646428
rclavicle -2.748925100458322E-19 -3.4395513713747755E-16
rhumerus 34.422703337260856 -7.8100813139991185 -30.795401909116183
rradius 144.6570334664987
rwrist -21.26963476064492
rhand -19.371566129094525 -30.738421512923818
rfingers 7.125019999999962
rthumb 6.970819586411603 -60.543411284344174
lclavicle -1.1828171023560016E-15 1.737062779639209E-16
lhumerus -47.13973659208012 -6.332583380885903 80.0091881152676
lradius 62.01985592698962
lwrist 10.88443414358013
lhand -14.564215117115847 -19.807781077545258
lfingers 7.125019999999865
lthumb 11.509326656108577 9.924648632261475
rfemur -15.044127946856495 7.3433168032402785 33.487761083832304
rtibia 37.421833233286776
rfoot -14.877445831717726 -7.759434077103541
rtoes 9.637111524086276
lfemur -19.74674766087816 2.7505127585835747 -14.841402381757085
ltibia 61.289092614971494
lfoot 0.3655584740750797 -9.027401536197953
ltoes -3.8464032038017635
216
root 0 0 0 -1.4094255655567733 -1.2983601165662084 -3.993804344141032
lowerback 19.90255069825675 2.961078461450909 -0.01313842157592282
upperback 2.1772082180015917 3.994629353753078 -0.4516117439052969
thorax -8.787469000273223 1.9282046690226418 -1.1307897546090246
lowerneck -8.46519183880963 -5.995984890404909 -1.4051185619184632
upperneck -0.6974939332867311 -8.649482445827047 5.729693867467088
head 1.46424094025934 -3.9629105032741183 1.4850025047482762
rclavicle -2.922460769700524E-16 -1.8180145528979318E-16
rhumerus 35.31979527685442 -6.653394121020513 -30.04233261141507
rradius 146.5489505772233
rwrist -22.50183740902994
rhand -19.281971902939258 -30.898839298474854
rfingers 7.125019999999959
rthumb 7.0567414658002585 -60.69724977442555
lclavicle -1.3676914660380846E-15 2.640904737930588E-16
lhumerus -47.181209618603624 -6.329473290302893 80.01761089801504
lradius 62.03690127526432
lwrist 10.853876786032037
lhand -14.533207975856074 -19.89194915065262
lfingers 7.125019999999867
lthumb 11.542427466282264 9.828821170048444
rfemur -11.409627480412247 8.211542799484034 34.37557490367128
rtibia 32.49989970918448
rfoot -17.043727897565986 -7.958244636320199
rtoes 8.986527084076826
lfemur -21.08168954707573 3.0941405425326143 -14.307410905954839
ltibia 62.39974518769907
lfoot -0.6066633790791052 -8.294083735984408
ltoes -4.487320652808002
217
root 0 0 0 -1.4310748180670854 -1.3508737157806643 -3.9980173693798693
lowerback 19.790367278094386 2.998504875640342 0.07002746731233311
upperback 2.1999558855879515 4.047538959383319 -0.4929432345311089
thorax -8.702979572675078 1.9519995083158515 -1.2255980488964722
lowerneck -8.555675801014296 -5.991552102160972 -1.4711573195296863
upperneck -0.85765195655204 -8.650666503677186 5.820669648555809
head 1.408664773943971 -3.9615914073761713 1.5255322148147403
rclavicle -5.330489488480406E-16 -7.55602941780869E-18
rhumerus 35.930851086240736 -5.569936322989447 -29.5882371873698
rradius 148.06426312003282
rwrist -23.35508369896012
rhand -19.23466915983505 -30.947819313470973
rfingers 7.125019999999957
rthumb 7.101631593686377 -60.744867797786405
lclavicle -1.5128807459682845E-15 3.651254966802844E-16
lhumerus -47.245252632125855 -6.296203966833627 79.97572234499049
lradius 62.03989403858912
lwrist 10.83427020183647
lhand -14.522995921744801 -19.9297070023352
lfingers 7.125019999999868
lthumb 11.555066092422647 9.787502049659993
rfemur -7.7403082953100135 8.725725607702437 35.05747290484698
rtibia 29.37446145382433
rfoot -18.84718230336336 -8.031297837656327
rtoes 8.143122447163767
lfemur -22.15172917975348 3.180190814774901 -14.159060949241708
ltibia 62.03124126748388
lfoot -1.3093572355543799 -7.6288824697033215
ltoes -4.104954874218926
218
root 0 0 0 -1.4485060441615154 -1.4012229026032963 -4.000225438175371
lowerback 19.72825053755657 3.0197346147144306 0.11678661810181945
upperback 2.2194535373077344 4.0777472218122375 -0.5127730686121674
thorax -8.649481000547892 1.9656016062181512 -1.275392225376515
lowerneck -8.596542485483544 -5.983684347703111 -1.5021236153388189
upperneck -0.9204622038430337 -8.642375964243273 5.863254727234831
head 1.3859485434936394 -3.956898730849904 1.5450239117409827
rclavicle -6.952594023894541E-16 1.7213157595434737E-16
rhumerus 36.27973346892471 -4.792130854091636 -29.344931807912147
rradius 149.11511481121985
rwrist -23.90597382829433
rhand -19.22981332323731 -30.965429001758043
rfingers 7.125019999999955
rthumb 7.105521564580469 -60.764663655213226
lclavicle -1.5862610775979614E-15 4.781726691032049E-16
lhumerus -47.30478535725925 -6.253497690065187 79.91822224668587
lradius 62.0316576098724
lwrist 10.821001906348874
lhand -14.524951369151927 -19.93877422014242
lfingers 7.125019999999868
lthumb 11.555589395318744 9.780234442770373
rfemur -4.652631692468663 8.925985115598055 35.44101198840018
rtibia 27.77606243788278
rfoot -20.11531740033157 -7.996677668501956
rtoes 7.355929182748962
lfemur -23.12273623028392 3.0851998632840822 -14.268515225846253
ltibia 60.530288314568054
lfoot -1.8347673263159017 -6.984795263454765
ltoes -2.9055777162116527
219
root 0 0 0 -1.8067236494124967 -2.2028254859470326 -3.962426864738375
lowerback 19.574474976036242 2.8814871142779652 0.0017707370629299612
upperback 2.575674866466157 3.8903202960258456 -0.22740416078050885
thorax -8.177872289511173 1.8816281485662385 -0.867781724431152
lowerneck -7.652318093128246 -5.65505942971704 -1.1100158815687815
upperneck 0.6298256823117558 -8.100766991321471 5.362121843825285
head 1.7629176114920506 -3.719395194370909 1.3524372066718138
rclavicle -2.1548338677453894E-15 7.849975769326593E-17
rhumerus 31.105453350018102 -6.959808572669923 -33.91839766789242
rradius 140.55731715011376
rwrist -18.409737486313198
rhand -19.147827463850184 -29.534505373297723
rfingers 7.125019999999952
rthumb 7.179790517438854 -59.29458017056733
lclavicle -1.0375698365417271E-15 4.674893728391569E-16
lhumerus -47.270053061914595 -6.02648254114685 79.99731183305377
lradius 61.68215618597168
lwrist 10.595320121734016
lhand -14.503811945861274 -19.980160985185947
lfingers 7.125019999999869
lthumb 11.57633287779659 9.816292440716467
rfemur -2.953626469391108 8.938715302676615 35.8045174100554
rtibia 27.986981240194517
rfoot -20.601194416484343 -7.889053518574334
rtoes 6.87527428092996
lfemur -24.558853539689213 2.390845588428277 -15.87118551944997
ltibia 53.96313260540263
lfoot -2.1089272644750956 -6.1325757345222
ltoes 3.413682411013717
